<svg width="26" height="30" viewBox="0 0 26 30" fill="none" xmlns="http://www.w3.org/2000/svg">
<path d="M22.6857 8.09928V27.8146C22.6857 28.7329 21.7714 29.4891 20.6612 29.4891H4.95509C3.84489 29.4891 2.9306 28.7329 2.9306 27.8146V8.09928H22.6857ZM17.5592 10.2869V27.2474H18.7347V10.2869H17.5592ZM12.2367 10.2869V27.2474H13.4122V10.2869H12.2367ZM6.91428 10.2869V27.2474H8.08979V10.2869H6.91428ZM8.2204 3.53504V2.13066C8.2204 1.23942 9.06938 0.537231 10.1469 0.537231H15.502C16.5796 0.537231 17.4286 1.23942 17.4286 2.13066V3.53504H23.3388C24.449 3.53504 25.3633 4.29125 25.3633 5.20949V6.37081H0.285706V5.18249C0.285706 4.26424 1.19999 3.50803 2.3102 3.50803H8.2204V3.53504ZM10.1469 1.61752C9.8204 1.61752 9.55918 1.83358 9.55918 2.10366V3.50803H16.1224V2.10366C16.1224 1.83358 15.8612 1.61752 15.5347 1.61752H10.1469Z" fill="white"/>
</svg>
