<svg width="87" height="61" viewBox="0 0 87 61" fill="none" xmlns="http://www.w3.org/2000/svg">
<path d="M79.9866 61H7.01341C3.14762 61 0 57.8984 0 54.083V6.91704C0 3.1016 3.14762 0 7.01341 0H79.9866C83.8524 0 87 3.1016 87 6.91704V54.083C87 57.8984 83.8524 61 79.9866 61ZM7.01341 2.76682C4.69338 2.76682 2.80537 4.62888 2.80537 6.91704V54.083C2.80537 56.3711 4.69338 58.2332 7.01341 58.2332H79.9866C82.3066 58.2332 84.1946 56.3711 84.1946 54.083V6.91704C84.1946 4.62888 82.3066 2.76682 79.9866 2.76682H7.01341Z" fill="#ABABAB"/>
<path d="M43.5 30.9898C41.6344 30.9898 39.7689 30.4838 38.3494 29.4742L2.49959 3.97674C1.91607 3.56006 1.85436 2.83889 2.36493 2.36269C2.87551 1.88191 3.762 1.83612 4.34552 2.25051L40.1925 27.748C41.9879 29.0232 45.0177 29.0209 46.8075 27.748L82.6461 2.2528C83.2268 1.83383 84.1105 1.88191 84.6267 2.36498C85.1373 2.84118 85.0755 3.56235 84.492 3.97903L48.6507 29.4719C47.2311 30.4838 45.3656 30.9898 43.5 30.9898Z" fill="#ABABAB"/>
</svg>
