<svg width="45" height="56" viewBox="0 0 45 56" fill="none" xmlns="http://www.w3.org/2000/svg">
<path d="M22.5 27.5625C25.0959 27.5625 27.6335 26.7543 29.7919 25.2399C31.9503 23.7256 33.6325 21.5733 34.6259 19.0551C35.6193 16.5369 35.8792 13.766 35.3728 11.0927C34.8664 8.41937 33.6163 5.96378 31.7808 4.03644C29.9452 2.1091 27.6066 0.796562 25.0606 0.264809C22.5146 -0.266944 19.8756 0.00597118 17.4773 1.04904C15.079 2.09211 13.0292 3.85849 11.587 6.1248C10.1448 8.39112 9.375 11.0556 9.375 13.7813C9.375 17.4363 10.7578 20.9416 13.2192 23.5261C15.6806 26.1106 19.019 27.5625 22.5 27.5625ZM22.5 3.93751C24.3542 3.93751 26.1668 4.51483 27.7085 5.59648C29.2502 6.67812 30.4518 8.21551 31.1614 10.0142C31.8709 11.8129 32.0566 13.7922 31.6949 15.7017C31.3331 17.6112 30.4402 19.3652 29.1291 20.7418C27.818 22.1185 26.1475 23.056 24.329 23.4359C22.5104 23.8157 20.6254 23.6207 18.9123 22.8757C17.1993 22.1306 15.7351 20.8689 14.705 19.2501C13.6748 17.6314 13.125 15.7282 13.125 13.7813C13.125 11.1705 14.1127 8.66673 15.8709 6.82067C17.629 4.97461 20.0136 3.93751 22.5 3.93751V3.93751Z" fill="black"/>
<path d="M24.375 31.5H20.625C15.1549 31.5 9.90886 33.7816 6.04092 37.843C2.17299 41.9043 0 47.4127 0 53.1562C0 53.6784 0.197544 54.1792 0.549175 54.5484C0.900806 54.9176 1.37772 55.125 1.875 55.125H43.125C43.6223 55.125 44.0992 54.9176 44.4508 54.5484C44.8025 54.1792 45 53.6784 45 53.1562C45 47.4127 42.827 41.9043 38.9591 37.843C35.0911 33.7816 29.8451 31.5 24.375 31.5ZM3.8625 51.1875C4.32355 46.8575 6.28783 42.8577 9.38002 39.9523C12.4722 37.0469 16.4755 35.4396 20.625 35.4375H24.375C28.5245 35.4396 32.5278 37.0469 35.62 39.9523C38.7122 42.8577 40.6764 46.8575 41.1375 51.1875H3.8625Z" fill="black"/>
</svg>
