<svg width="11" height="11" viewBox="0 0 11 11" fill="none" xmlns="http://www.w3.org/2000/svg">
<path d="M5.28125 10.5625C4.23672 10.5625 3.21564 10.2528 2.34715 9.67245C1.47865 9.09214 0.801739 8.26732 0.402014 7.3023C0.00228828 6.33728 -0.102298 5.27539 0.10148 4.25093C0.305258 3.22647 0.808249 2.28544 1.54684 1.54684C2.28544 0.808249 3.22647 0.305258 4.25093 0.10148C5.27539 -0.102298 6.33728 0.00228828 7.3023 0.402014C8.26732 0.801739 9.09214 1.47865 9.67245 2.34715C10.2528 3.21564 10.5625 4.23672 10.5625 5.28125C10.5625 6.68193 10.0061 8.02523 9.01566 9.01566C8.02523 10.0061 6.68193 10.5625 5.28125 10.5625V10.5625ZM5.28125 0.812502C4.39742 0.812502 3.53343 1.07459 2.79855 1.56562C2.06367 2.05665 1.49089 2.75458 1.15267 3.57114C0.814436 4.38769 0.72594 5.28621 0.898368 6.15306C1.0708 7.01991 1.4964 7.81617 2.12137 8.44114C2.74633 9.0661 3.54259 9.49171 4.40944 9.66414C5.27629 9.83656 6.17481 9.74807 6.99137 9.40984C7.80793 9.07161 8.50585 8.49884 8.99688 7.76396C9.48791 7.02907 9.75 6.16509 9.75 5.28125C9.75 4.09607 9.27919 2.95942 8.44114 2.12137C7.60308 1.28332 6.46644 0.812502 5.28125 0.812502Z" fill="#EEEEEE"/>
<path d="M7.51563 7.92188C7.46217 7.92218 7.40917 7.91194 7.35967 7.89172C7.31017 7.8715 7.26515 7.84171 7.22719 7.80406L4.99282 5.56969C4.95517 5.53173 4.92538 5.48671 4.90516 5.43721C4.88495 5.38772 4.8747 5.33472 4.87501 5.28125V2.03125C4.87501 1.92351 4.91781 1.82017 4.99399 1.74399C5.07018 1.6678 5.17351 1.625 5.28126 1.625C5.389 1.625 5.49233 1.6678 5.56852 1.74399C5.64471 1.82017 5.68751 1.92351 5.68751 2.03125V5.11469L7.80407 7.22719C7.84215 7.26495 7.87237 7.30989 7.89299 7.35939C7.91362 7.4089 7.92424 7.462 7.92424 7.51562C7.92424 7.56925 7.91362 7.62235 7.89299 7.67186C7.87237 7.72136 7.84215 7.7663 7.80407 7.80406C7.76611 7.84171 7.72109 7.8715 7.67159 7.89172C7.6221 7.91194 7.5691 7.92218 7.51563 7.92188Z" fill="#EEEEEE"/>
</svg>
