<svg width="15" height="14" viewBox="0 0 15 14" fill="none" xmlns="http://www.w3.org/2000/svg">
<path d="M11.4855 13.4649H2.35723C1.05469 13.4649 0 12.4442 0 11.195V2.39968C0 1.14539 1.05996 0.129761 2.35723 0.129761H7.92598C8.50606 0.129761 8.98067 0.586792 8.98067 1.14539C8.98067 1.70398 8.50606 2.16101 7.92598 2.16101H2.35723C2.22012 2.16101 2.10937 2.26765 2.10937 2.39968V11.1899C2.10937 11.3219 2.22012 11.4286 2.35723 11.4286H11.4855C11.6227 11.4286 11.7334 11.3219 11.7334 11.1899V5.97976C11.7334 5.42117 12.208 4.96414 12.7881 4.96414C13.3682 4.96414 13.8428 5.42117 13.8428 5.97976V11.195C13.8428 12.4442 12.7881 13.4649 11.4855 13.4649Z" fill="#EEEEEE"/>
<path d="M6.35191 5.46316L8.18896 7.34772L12.649 3.31617L10.812 1.43162L6.35191 5.46316Z" fill="#EEEEEE"/>
<path d="M12.862 0.124699L14.1435 1.43993C14.2964 1.59736 14.2911 1.84618 14.1276 1.99345L12.978 3.03447L11.1323 1.1454L12.2819 0.104387C12.4507 -0.0428784 12.7038 -0.0327225 12.862 0.124699Z" fill="#EEEEEE"/>
<path d="M6.03281 5.75635L7.86797 7.64033L5.27344 8.21416L6.03281 5.75635Z" fill="#EEEEEE"/>
</svg>
