<svg width="5" height="10" viewBox="0 0 5 10" fill="none" xmlns="http://www.w3.org/2000/svg">
<path d="M0.471468 9.00205C0.409777 9.00243 0.348623 8.98981 0.291512 8.96493C0.234401 8.94005 0.182455 8.90339 0.138655 8.85705C0.0947203 8.81056 0.059848 8.75526 0.0360502 8.69433C0.0122524 8.6334 0 8.56805 0 8.50205C0 8.43604 0.0122524 8.37069 0.0360502 8.30976C0.059848 8.24883 0.0947203 8.19353 0.138655 8.14705L3.56053 4.50205L0.138655 0.857046C0.0503881 0.762894 0.000800192 0.635197 0.000800192 0.502046C0.000800192 0.436116 0.0129741 0.370832 0.0366274 0.309921C0.0602806 0.24901 0.0949499 0.193665 0.138655 0.147046C0.182361 0.100427 0.234247 0.0634463 0.291351 0.0382161C0.348455 0.012986 0.409659 0 0.471468 0C0.596297 0 0.716013 0.052894 0.80428 0.147046L4.55428 4.14705C4.59822 4.19353 4.63309 4.24883 4.65689 4.30976C4.68068 4.37069 4.69294 4.43604 4.69294 4.50205C4.69294 4.56805 4.68068 4.6334 4.65689 4.69433C4.63309 4.75526 4.59822 4.81056 4.55428 4.85705L0.80428 8.85705C0.76048 8.90339 0.708535 8.94005 0.651424 8.96493C0.594313 8.98981 0.533159 9.00243 0.471468 9.00205Z" fill="white"/>
</svg>
